<?xml version="1.0" encoding="UTF-8" standalone="no"?>
<!-- Created with Inkscape (http://www.inkscape.org/) -->

<svg
   xmlns:dc="http://purl.org/dc/elements/1.1/"
   xmlns:cc="http://creativecommons.org/ns#"
   xmlns:rdf="http://www.w3.org/1999/02/22-rdf-syntax-ns#"
   xmlns:svg="http://www.w3.org/2000/svg"
   xmlns="http://www.w3.org/2000/svg"
   xmlns:sodipodi="http://sodipodi.sourceforge.net/DTD/sodipodi-0.dtd"
   xmlns:inkscape="http://www.inkscape.org/namespaces/inkscape"
   width="128"
   height="128"
   viewBox="0 0 33.866666 33.866666"
   version="1.1"
   id="svg8"
   inkscape:version="0.92.4 (5da689c313, 2019-01-14)"
   sodipodi:docname="drawing.svg"
   inkscape:export-filename="C:\Users\camed\Desktop\16.png"
   inkscape:export-xdpi="12"
   inkscape:export-ydpi="12">
  <defs
     id="defs2" />
  <sodipodi:namedview
     id="base"
     pagecolor="#ffffff"
     bordercolor="#666666"
     borderopacity="1.0"
     inkscape:pageopacity="0.0"
     inkscape:pageshadow="2"
     inkscape:zoom="3.959798"
     inkscape:cx="81.546597"
     inkscape:cy="52.469698"
     inkscape:document-units="px"
     inkscape:current-layer="layer1"
     showgrid="false"
     units="px"
     inkscape:window-width="1920"
     inkscape:window-height="1017"
     inkscape:window-x="-8"
     inkscape:window-y="-8"
     inkscape:window-maximized="1" />
  <metadata
     id="metadata5">
    <rdf:RDF>
      <cc:Work
         rdf:about="">
        <dc:format>image/svg+xml</dc:format>
        <dc:type
           rdf:resource="http://purl.org/dc/dcmitype/StillImage" />
        <dc:title></dc:title>
      </cc:Work>
    </rdf:RDF>
  </metadata>
  <g
     inkscape:label="Layer 1"
     inkscape:groupmode="layer"
     id="layer1"
     transform="translate(0,-263.13334)">
    <circle
       id="path3719"
       cx="16.935888"
       cy="280.08508"
       style="stroke-width:0.26458332;fill:#008000"
       r="16.933332" />
    <text
       xml:space="preserve"
       style="font-style:normal;font-variant:normal;font-weight:bold;font-stretch:normal;font-size:14.40930176px;line-height:1.25;font-family:Calibri;-inkscape-font-specification:'Calibri, Bold';font-variant-ligatures:normal;font-variant-caps:normal;font-variant-numeric:normal;font-feature-settings:normal;text-align:start;letter-spacing:0px;word-spacing:0px;writing-mode:lr-tb;text-anchor:start;fill:#ffffff;fill-opacity:1;stroke:none;stroke-width:0.36022991"
       x="2.7988744"
       y="321.68887"
       id="text3723"
       transform="scale(1.1662036,0.8574832)"><tspan
         sodipodi:role="line"
         x="2.7988744"
         y="321.68887"
         style="font-style:normal;font-variant:normal;font-weight:bold;font-stretch:normal;font-size:14.40930176px;font-family:Calibri;-inkscape-font-specification:'Calibri, Bold';font-variant-ligatures:normal;font-variant-caps:normal;font-variant-numeric:normal;font-feature-settings:normal;text-align:start;writing-mode:lr-tb;text-anchor:start;fill:#ffffff;stroke-width:0.36022991"
         id="tspan3725"> ЎЗ</tspan><tspan
         sodipodi:role="line"
         x="2.7988744"
         y="339.7005"
         style="font-style:normal;font-variant:normal;font-weight:bold;font-stretch:normal;font-size:14.40930176px;font-family:Calibri;-inkscape-font-specification:'Calibri, Bold';font-variant-ligatures:normal;font-variant-caps:normal;font-variant-numeric:normal;font-feature-settings:normal;text-align:start;writing-mode:lr-tb;text-anchor:start;fill:#ffffff;stroke-width:0.36022991"
         id="tspan3729">BEK</tspan></text>
    <path
       style="fill:#ffffff;stroke-width:0.26458332"
       id="path3731"
       d="m 0.31104261,282.43861 c 0.14199101,-0.34894 0.42115553,-0.60853 0.70856509,-0.83956 0.368854,-0.36844 2.6962176,-1.64601 1.0363694,-0.69269 0.077113,-0.0476 0.1531528,-0.0969 0.2313405,-0.14275 0.3478587,-0.20374 0.6970739,-0.40516 1.0467227,-0.60581 0.078921,-0.0453 0.1595011,-0.0876 0.2389473,-0.13199 0.075276,-0.042 0.2998142,-0.17041 0.2252123,-0.12719 -0.2079713,0.12048 -0.8331428,0.47973 -0.6253292,0.35898 0.3314816,-0.19261 0.6642245,-0.38304 0.9963369,-0.57456 -1.641186,0.97463 0.061569,-0.10132 0.6275144,-0.3275 0.029529,-0.0122 0.060232,-0.022 0.088586,-0.0368 0.061924,-0.0322 0.2423322,-0.13883 0.181958,-0.10376 -1.6366683,0.95069 -0.2852238,0.12109 0.2853012,-0.15407 0.2539648,-0.10041 0.4927002,-0.23413 0.7413099,-0.34703 0.2161966,-0.0745 0.4176453,-0.17729 0.6389555,-0.23715 0.336106,-0.0804 0.6620282,-0.19249 1.0013222,-0.26286 0.3364349,-0.0826 0.6816376,-0.10389 1.0243254,-0.14256 0.285297,-0.0244 0.5663774,-0.0617 0.8467899,-0.1191 0.204524,-0.0467 0.4117629,-0.0728 0.6211009,-0.0811 0.198907,-0.006 0.39795,-0.004 0.596923,-0.005 0.190027,-9e-4 0.380046,0.001 0.570067,0.002 0.353375,0.003 0.706748,0.005 1.060134,0.003 0.380364,-10e-4 0.760726,9.5e-4 1.141089,0.001 0.486334,-0.002 0.971716,-3.5e-4 1.457503,0.0227 0.359223,0.0355 0.719958,0.0844 1.074304,0.15487 0.229927,0.0389 0.456881,0.0915 0.687898,0.12396 0.248574,0.0682 0.500089,0.12445 0.750248,0.18641 0.304236,0.0784 0.610252,0.15305 0.913356,0.23686 0.302484,0.0825 0.60909,0.14994 0.903733,0.25813 0.314319,0.14281 0.649814,0.22161 0.984117,0.3003 0.365979,0.087 0.734452,0.16158 1.09919,0.25387 0.387502,0.0987 0.775997,0.19195 1.166734,0.27679 0.336802,0.0771 0.666507,0.18066 0.997942,0.27739 0.317158,0.0982 0.620454,0.23208 0.934468,0.33879 0.314651,0.0925 0.627911,0.18901 0.942689,0.28103 0.242336,0.0648 0.465843,0.17705 0.69877,0.26637 0.199388,0.0628 0.393428,0.13888 0.597338,0.18632 0.221099,0.0675 0.441196,0.13684 0.668264,0.1818 0.262699,0.0763 0.537043,0.0838 0.805566,0.12488 0.224293,0.0336 0.445111,0.0847 0.670375,0.11285 0.153135,0.0173 0.307382,0.0185 0.46129,0.0194 0.157586,-1.9e-4 0.315172,-1.7e-4 0.472758,-5.5e-4 0.164804,4.2e-4 0.329605,-2.6e-4 0.494408,-6.1e-4 0.116711,-0.008 0.237165,0.0159 0.352724,-0.009 0.07803,-0.0169 0.2179,-0.0762 0.286062,-0.10302 0.26714,-0.0981 0.522158,-0.22706 0.79475,-0.3098 0.05233,-0.0271 0.111562,-0.0354 0.165548,-0.0577 0.02212,-0.009 0.0844,-0.0453 0.06361,-0.0334 -0.263241,0.1509 -0.527161,0.30063 -0.791038,0.45041 -0.01918,0.0109 0.03781,-0.0228 0.05696,-0.0337 0.302025,-0.17277 0.604377,-0.34496 0.906566,-0.51744 0.164819,-0.0702 0.33201,-0.13293 0.503277,-0.18614 0.147706,-0.0689 0.294029,-0.14199 0.43433,-0.2255 0.157839,-0.0931 0.33778,-0.13616 0.497927,-0.22366 -0.04716,0.028 0.226039,-0.11595 0.171127,-0.084 -1.678477,0.97721 -0.188685,0.0983 0.300186,-0.17054 -0.25953,0.14906 -0.519057,0.29812 -0.778584,0.44718 0,0 0.922776,-0.35616 0.922776,-0.35616 v 0 c -0.304929,0.17639 -0.609859,0.35278 -0.914791,0.52917 -0.333645,0.17551 -0.09774,0.0526 0.704104,-0.41228 0.02564,-0.0149 -0.0511,0.03 -0.07677,0.0448 -0.36785,0.21177 -0.718309,0.43814 -1.099484,0.61785 -0.16606,0.0725 -0.338108,0.13268 -0.493686,0.22726 -0.145836,0.0768 -0.288472,0.16154 -0.446804,0.21086 -0.169373,0.058 -0.337159,0.12094 -0.497438,0.20131 0.264099,-0.153 0.528066,-0.30623 0.792295,-0.45901 0.01924,-0.0111 -0.03803,0.023 -0.0573,0.034 -0.30313,0.17383 -0.604731,0.35038 -0.909899,0.52062 -0.07068,0.0394 -0.159152,0.0455 -0.231839,0.0801 -0.264948,0.091 -0.519215,0.21015 -0.782653,0.30545 -0.132937,0.0459 -0.177011,0.0691 -0.311158,0.0876 -0.119335,0.0165 -0.241707,0.001 -0.361569,0.007 -0.164518,-2.7e-4 -0.329036,-8e-4 -0.493554,1.9e-4 -0.157908,2e-4 -0.315819,0.002 -0.473728,-1.9e-4 -0.156078,-0.002 -0.31237,-0.007 -0.466905,-0.0312 -0.222999,-0.035 -0.442897,-0.0873 -0.666938,-0.11584 -0.270026,-0.0373 -0.542724,-0.0604 -0.807043,-0.13115 -0.228281,-0.0499 -0.451151,-0.11901 -0.676152,-0.18154 -0.203829,-0.0562 -0.402406,-0.12939 -0.60203,-0.19874 -0.227581,-0.0945 -0.452288,-0.19531 -0.690604,-0.26159 -0.312342,-0.0974 -0.625828,-0.1908 -0.938171,-0.28813 -0.313881,-0.10647 -0.618327,-0.23867 -0.936499,-0.33301 -0.327065,-0.0998 -0.654823,-0.19878 -0.988362,-0.2749 -0.390469,-0.0843 -0.776951,-0.184 -1.164361,-0.28125 -0.367915,-0.0848 -0.737814,-0.16071 -1.104861,-0.24932 -0.337491,-0.0798 -0.672054,-0.16909 -0.991123,-0.30795 -0.295861,-0.0987 -0.600465,-0.16704 -0.900488,-0.25182 -0.30398,-0.0809 -0.608974,-0.15908 -0.914755,-0.23252 -0.250225,-0.0586 -0.499293,-0.12263 -0.750629,-0.17611 -0.2297,-0.0384 -0.457212,-0.0884 -0.686333,-0.13007 -0.346863,-0.0677 -0.697491,-0.12596 -1.0498,-0.15431 -0.486651,-0.0196 -0.973474,-0.0207 -1.460479,-0.0153 -0.381692,5e-4 -0.763383,0.002 -1.145075,0.001 -0.356117,-0.002 -0.71222,5e-5 -1.068327,0.003 -0.191267,7.2e-4 -0.382536,0.002 -0.573803,4.5e-4 -0.197733,-6.8e-4 -0.3955974,-10e-4 -0.5931337,0.009 -0.2044139,0.0147 -0.406786,0.0452 -0.6072857,0.0879 -0.2808634,0.0537 -0.563839,0.0828 -0.8484402,0.10948 -0.3408481,0.0345 -0.6820918,0.0682 -1.0159738,0.1492 -0.3394032,0.0762 -0.6675098,0.18876 -1.0042929,0.27477 -0.2149253,0.0708 -0.4191222,0.16866 -0.6307831,0.24846 -0.2465517,0.11598 -0.4889447,0.24059 -0.7389535,0.34912 -0.036961,0.0192 -0.1467297,0.0788 -0.1108829,0.0576 0.2505843,-0.14832 1.0082065,-0.58324 0.7552354,-0.43903 -0.3928811,0.22398 -0.7863342,0.4925 -1.2088952,0.67421 -0.084556,0.0368 -0.1653741,0.0763 -0.2460694,0.12114 -0.033989,0.0189 -0.1352219,0.0768 -0.1016492,0.0572 0.4760537,-0.27785 1.7223959,-0.99751 -0.2586159,0.14768 0.2193366,-0.12719 0.8778875,-0.50783 0.6580102,-0.38157 -0.3409849,0.19579 -0.6804233,0.39427 -1.0213353,0.59019 -0.074,0.0425 -0.1489252,0.0834 -0.2233835,0.12514 -0.07983,0.0447 -0.3180997,0.18102 -0.2394797,0.1342 0.1958173,-0.11662 0.3914366,-0.23375 0.5911203,-0.34362 0.079217,-0.0436 -0.1529781,0.0964 -0.2294673,0.14464 -0.3500869,0.20327 -0.6997324,0.40729 -1.0502606,0.6098 -0.2090012,0.12074 0.4150141,-0.2467 0.6256778,-0.36451 0.051908,-0.029 -0.099858,0.0646 -0.1491108,0.098 -0.078576,0.0532 -0.2242084,0.15644 -0.3000931,0.21284 -0.053864,0.04 -0.1067056,0.0814 -0.1600584,0.12212 -0.2809411,0.21249 -0.5604457,0.44991 -0.7097276,0.77753 0,0 -0.89585219,0.42073 -0.89585219,0.42073 z"
       inkscape:connector-curvature="0" />
  </g>
</svg>
