<?xml version="1.0" encoding="UTF-8" standalone="no"?>
<!-- Created with Inkscape (http://www.inkscape.org/) -->

<svg
   xmlns:dc="http://purl.org/dc/elements/1.1/"
   xmlns:cc="http://creativecommons.org/ns#"
   xmlns:rdf="http://www.w3.org/1999/02/22-rdf-syntax-ns#"
   xmlns:svg="http://www.w3.org/2000/svg"
   xmlns="http://www.w3.org/2000/svg"
   xmlns:sodipodi="http://sodipodi.sourceforge.net/DTD/sodipodi-0.dtd"
   xmlns:inkscape="http://www.inkscape.org/namespaces/inkscape"
   width="19mm"
   height="19mm"
   viewBox="0 0 67.322835 67.322834"
   id="svg4250"
   version="1.1"
   inkscape:version="0.91 r13725"
   sodipodi:docname="icon2.svg">
  <defs
     id="defs4252" />
  <sodipodi:namedview
     id="base"
     pagecolor="#ffffff"
     bordercolor="#666666"
     borderopacity="1.0"
     inkscape:pageopacity="0.0"
     inkscape:pageshadow="2"
     inkscape:zoom="1.4"
     inkscape:cx="269.27573"
     inkscape:cy="74.081169"
     inkscape:document-units="px"
     inkscape:current-layer="layer1"
     showgrid="false"
     inkscape:window-width="1920"
     inkscape:window-height="1031"
     inkscape:window-x="-8"
     inkscape:window-y="-8"
     inkscape:window-maximized="1" />
  <metadata
     id="metadata4255">
    <rdf:RDF>
      <cc:Work
         rdf:about="">
        <dc:format>image/svg+xml</dc:format>
        <dc:type
           rdf:resource="http://purl.org/dc/dcmitype/StillImage" />
        <dc:title></dc:title>
      </cc:Work>
    </rdf:RDF>
  </metadata>
  <g
     inkscape:label="Layer 1"
     inkscape:groupmode="layer"
     id="layer1"
     transform="translate(0,-985.03937)">
    <path
       style="fill:#aa0000;fill-opacity:1"
       d="m 11.799814,997.86778 -4.3346477,1.10134 c -6.84176057,1.73868 -6.2678653,0.7203 -6.0980337,10.81718 l 0.1473617,8.7591 2.2894355,0.1568 c 2.1215478,0.1442 2.2894355,0.065 2.2894355,-1.104 0,-1.8464 0.539051,-2.8714 1.509673,-2.8714 0.470533,0 1.5353829,-0.6158 2.366607,-1.3685 l 1.5112197,-1.3685 1.59416,1.1139 c 0.876645,0.6127 1.964446,1.1141 2.417317,1.1141 0.544924,0 0.940689,0.6925 1.170009,2.0478 0.412487,2.4387 0.631837,2.5974 3.884202,2.8089 1.38359,0.09 2.697471,0.1797 2.919705,0.1986 0.222213,0.021 0.403938,0.3072 0.403938,0.6387 0,1.815 2.524524,5.2244 5.3143,7.1773 4.437905,3.1063 8.195669,5.4586 8.720631,5.4586 1.59692,0 3.15935,1.2853 3.309346,2.7226 0.12207,1.1705 0.502973,1.654 1.510028,1.9165 3.023067,0.7882 3.560654,0.5571 5.061068,-2.1765 0.996102,-1.8148 1.270006,-2.7924 0.884441,-3.1567 -0.307181,-0.2904 -0.55849,-1.1152 -0.55849,-1.8329 0,-0.8491 -0.411296,-1.4806 -1.177116,-1.8077 -0.647576,-0.2763 -1.279037,-0.8041 -1.403301,-1.1724 -0.170563,-0.5052 0.227982,-0.5888 1.625764,-0.3409 1.626016,0.2882 1.971657,0.1526 2.834716,-1.1126 0.540618,-0.7927 1.308613,-1.6242 1.706301,-1.8483 0.397814,-0.2238 0.723285,-0.854 0.723285,-1.4002 0,-0.6641 0.368362,-0.9929 1.112695,-0.9929 0.611979,0 1.581765,-0.2372 2.154824,-0.5273 0.628095,-0.3175 1.042025,-0.3347 1.042025,-0.042 0,0.2665 -0.303126,0.5888 -0.673412,0.7161 -0.506108,0.1735 -0.5263,0.4674 -0.08131,1.1803 0.448063,0.7178 1.27193,0.9622 3.387583,1.0036 1.537431,0.029 2.917781,-0.1317 3.067045,-0.3604 0.149243,-0.2283 1.101513,-0.7876 2.116134,-1.2426 2.247255,-1.008 2.18691,-1.653 -0.274385,-2.9283 -1.036966,-0.5371 -1.966264,-1.1784 -2.064944,-1.4249 -0.269202,-0.6714 -2.122718,-0.539 -2.372606,0.1693 -0.162621,0.4611 -0.661852,0.4135 -1.976945,-0.1881 l -1.75954,-0.8053 1.662908,-1.1194 c 1.669158,-1.1233 2.248091,-2.6094 0.989371,-2.54 -0.37041,0.021 -1.40052,0.4753 -2.289435,1.0108 -0.888768,0.5355 -2.138834,1.1923 -2.777631,1.4596 -1.504259,0.6294 -5.03101,3.9629 -5.041357,4.7653 -0.0042,0.3408 -0.313452,0.046 -0.686747,-0.6536 -0.399862,-0.7495 -1.227094,-1.3315 -2.012291,-1.4155 -3.228453,-0.3451 -3.757387,-0.6199 -3.757387,-1.9516 0,-0.8813 -0.351787,-1.3978 -1.073755,-1.5763 -0.918115,-0.227 -1.025428,-0.551 -0.740591,-2.2351 0.261279,-1.5442 0.144017,-2.0384 -0.54227,-2.2873 -0.481486,-0.1756 -0.875579,-0.5968 -0.875579,-0.9381 0,-0.3414 -0.54528,-1.093 -1.211961,-1.6705 -1.050301,-0.9095 -1.79522,-1.0307 -5.581097,-0.9083 -2.403019,0.077 -5.093278,0.2914 -5.978347,0.4752 -1.440319,0.2989 -1.80124,0.098 -3.435658,-1.9147 -1.116291,-1.3743 -3.59922,-3.275 -6.386361,-4.8884 l -4.560373,-2.64 z m -0.397563,1.03508 4.483327,2.60884 c 2.740006,1.5946 5.194696,3.4911 6.313035,4.8769 1.797164,2.2272 1.872768,2.2617 4.226248,1.9281 7.079254,-1.0036 11.451526,-0.3669 11.451526,1.6675 0,0.3855 0.362238,0.8324 0.805242,0.9929 0.612356,0.2222 0.723891,0.7742 0.465015,2.3049 -0.298799,1.7663 -0.199827,2.0476 0.810531,2.2972 0.773763,0.1902 1.151385,0.6866 1.151385,1.5108 0,1.3666 1.669514,2.2192 4.344514,2.2192 1.192145,0 1.581055,0.2371 1.581055,0.9638 0,0.8666 0.967863,1.5821 2.140297,1.5821 0.240001,0 0.589028,-0.575 0.775561,-1.2775 0.408997,-1.5405 4.813835,-4.7745 5.047607,-3.706 0.231347,1.0572 3.660755,2.6126 5.020203,2.2767 0.653094,-0.161 1.87768,0.044 2.721153,0.4559 1.59138,0.7777 2.052298,1.742 0.833001,1.742 -0.385189,0 -0.996938,0.2805 -1.359782,0.6235 -0.362844,0.3428 -1.592008,0.6291 -2.731249,0.6362 -1.959534,0.021 -2.067808,-0.069 -2.006752,-1.5145 0.07044,-1.6697 -0.287617,-1.7512 -3.975796,-0.9045 -1.356417,0.3115 -1.933678,0.7491 -2.057461,1.56 -0.116844,0.7654 -0.548771,1.1291 -1.346698,1.1343 -0.955969,0 -1.024236,0.1004 -0.36669,0.5015 0.477494,0.2918 0.547579,0.4968 0.171191,0.5014 -0.35047,0 -0.780369,0.4344 -0.955489,0.9559 -0.240607,0.7165 -0.808378,0.9341 -2.325743,0.8911 -1.662406,-0.048 -2.035597,0.1296 -2.1714,1.03 -0.101167,0.6706 0.329777,1.4538 1.125174,2.0451 1.754126,1.3043 2.144018,3.5497 1.02315,5.8928 -0.957872,2.0027 -1.257988,2.1339 -3.196347,1.3976 -0.818495,-0.3111 -1.212212,-0.8878 -1.212212,-1.7759 0,-1.0088 -0.408286,-1.4699 -1.750761,-1.978 -2.861177,-1.083 -3.234473,-1.2732 -6.37315,-3.2489 -5.359491,-3.3732 -7.45675,-4.935 -7.477652,-5.5682 -0.02926,-0.89 -2.172257,-4.6603 -2.904446,-5.11 -0.623162,-0.3829 -0.894893,-0.4218 -3.880941,-0.5585 -1.478905,-0.067 -1.69932,-0.2968 -2.15495,-2.2384 -0.362719,-1.5464 -0.814502,-2.2163 -1.584671,-2.3507 -0.592519,-0.1024 -1.720828,-0.6193 -2.507217,-1.1467 -1.934994,-1.2976 -3.23602,-1.2056 -4.4434237,0.314 -0.5562118,0.7002 -1.3035339,1.2727 -1.6604835,1.2727 -1.0062187,0 -2.4322196,1.7403 -2.4322196,2.9681 0,0.8399 -0.323673,1.1058 -1.3466972,1.1058 l -1.3466973,0 0,-8.1308 0,-8.1306 4.5398045,-1.3087 4.5399508,-1.30894 z m -2.1209413,5.09934 0,4.3694 2.7640653,0 0,-0.5165 -2.1830842,0 0,-3.8529 -0.5809811,0 z m 2.2652723,0 0,0.5165 1.560988,0 0,3.8529 0.580981,0 0,-3.8529 1.561114,0 0,-0.5165 -3.703083,0 z m 25.588001,16.8383 c -0.320768,0 -0.613296,0.05 -0.877356,0.1505 -0.262136,0.1004 -0.486042,0.2446 -0.671843,0.4342 -0.191675,0.1964 -0.338451,0.4354 -0.440121,0.719 -0.101794,0.2834 -0.152587,0.6053 -0.152587,0.9653 0,0.3796 0.05288,0.713 0.15844,1.0006 0.105557,0.2855 0.252271,0.5215 0.44012,0.7071 0.191675,0.1902 0.416563,0.3297 0.674854,0.4195 0.260192,0.088 0.54852,0.1317 0.865462,0.1317 0.168264,0 0.321855,-0.021 0.460793,-0.042 0.140881,-0.025 0.270769,-0.056 0.390121,-0.094 0.140882,-0.044 0.254319,-0.088 0.340374,-0.1296 0.088,-0.042 0.185822,-0.086 0.29349,-0.1317 l 0,-0.6808 -0.04118,0 c -0.213225,0.1923 -0.442169,0.3354 -0.686643,0.4314 -0.244578,0.096 -0.506694,0.1442 -0.786368,0.1442 -0.203589,0 -0.397103,-0.033 -0.580981,-0.1024 -0.182059,-0.071 -0.34121,-0.1777 -0.478225,-0.3227 -0.131058,-0.138 -0.238579,-0.319 -0.322711,-0.54 -0.08215,-0.2211 -0.123324,-0.4851 -0.123324,-0.7924 0,-0.2932 0.03721,-0.5516 0.111618,-0.7746 0.07629,-0.2249 0.18206,-0.4107 0.316922,-0.5575 0.138792,-0.1505 0.29627,-0.2612 0.472331,-0.3317 0.178088,-0.073 0.377517,-0.1087 0.598539,-0.1087 0.269933,0 0.523416,0.046 0.760051,0.138 0.236782,0.092 0.475341,0.2385 0.715969,0.4402 l 0.04389,0 0,-0.6896 c -0.285673,-0.1421 -0.545761,-0.2425 -0.780599,-0.2993 -0.232685,-0.056 -0.466332,-0.086 -0.70119,-0.086 z m 1.739954,0.079 1.54343,2.5145 0,1.8545 0.580982,0 0,-1.9159 1.537556,-2.4531 -0.619086,0 -1.206066,1.9541 -1.194068,-1.9541 -0.642748,0 z"
       id="path4147"
       inkscape:connector-curvature="0" />
  </g>
</svg>
